<?xml version="1.0" encoding="UTF-8" standalone="no"?>
<!-- Created with Inkscape (http://www.inkscape.org/) -->

<svg
   xmlns:dc="http://purl.org/dc/elements/1.1/"
   xmlns:cc="http://creativecommons.org/ns#"
   xmlns:rdf="http://www.w3.org/1999/02/22-rdf-syntax-ns#"
   xmlns:svg="http://www.w3.org/2000/svg"
   xmlns="http://www.w3.org/2000/svg"
   xmlns:xlink="http://www.w3.org/1999/xlink"
   xmlns:sodipodi="http://sodipodi.sourceforge.net/DTD/sodipodi-0.dtd"
   xmlns:inkscape="http://www.inkscape.org/namespaces/inkscape"
   width="152.58449"
   height="152.42108"
   id="svg2"
   version="1.1"
   inkscape:version="0.48.0 r9654"
   sodipodi:docname="icon.svg">
  <defs
     id="defs4">
    <linearGradient
       id="linearGradient4535">
      <stop
         id="stop4537"
         offset="0"
         style="stop-color:#ffffff;stop-opacity:0.68115944;" />
      <stop
         id="stop4539"
         offset="1"
         style="stop-color:#ffffff;stop-opacity:0" />
    </linearGradient>
    <linearGradient
       id="linearGradient4477">
      <stop
         style="stop-color:#000000;stop-opacity:1;"
         offset="0"
         id="stop4479" />
      <stop
         style="stop-color:#ffffff;stop-opacity:1;"
         offset="1"
         id="stop4481" />
    </linearGradient>
    <linearGradient
       id="linearGradient4467">
      <stop
         style="stop-color:#a2863c;stop-opacity:1;"
         offset="0"
         id="stop4469" />
      <stop
         style="stop-color:#ffffff;stop-opacity:1;"
         offset="1"
         id="stop4471" />
    </linearGradient>
    <linearGradient
       id="linearGradient4451">
      <stop
         style="stop-color:#000000;stop-opacity:1;"
         offset="0"
         id="stop4453" />
      <stop
         style="stop-color:#000000;stop-opacity:0;"
         offset="1"
         id="stop4455" />
    </linearGradient>
    <linearGradient
       inkscape:collect="always"
       xlink:href="#linearGradient4467-1"
       id="linearGradient4473-6"
       x1="180.35428"
       y1="666.39648"
       x2="180.35428"
       y2="810.52429"
       gradientUnits="userSpaceOnUse" />
    <linearGradient
       id="linearGradient4467-1">
      <stop
         style="stop-color:#e4d099;stop-opacity:1;"
         offset="0"
         id="stop4469-8" />
      <stop
         style="stop-color:#e4d098;stop-opacity:0.21014492;"
         offset="1"
         id="stop4471-4" />
    </linearGradient>
    <linearGradient
       inkscape:collect="always"
       xlink:href="#linearGradient4477-8"
       id="linearGradient4483-6"
       x1="180.00671"
       y1="811.96661"
       x2="180.00671"
       y2="647.96765"
       gradientUnits="userSpaceOnUse" />
    <linearGradient
       inkscape:collect="always"
       id="linearGradient4477-8">
      <stop
         style="stop-color:#000000;stop-opacity:1;"
         offset="0"
         id="stop4479-0" />
      <stop
         style="stop-color:#000000;stop-opacity:0;"
         offset="1"
         id="stop4481-7" />
    </linearGradient>
    <linearGradient
       inkscape:collect="always"
       xlink:href="#linearGradient4467-6"
       id="linearGradient4571-2"
       gradientUnits="userSpaceOnUse"
       x1="180.35428"
       y1="666.39648"
       x2="180.35428"
       y2="810.52429" />
    <linearGradient
       id="linearGradient4467-6">
      <stop
         style="stop-color:#e4d09a;stop-opacity:1;"
         offset="0"
         id="stop4469-82" />
      <stop
         style="stop-color:#ffffff;stop-opacity:1;"
         offset="1"
         id="stop4471-5" />
    </linearGradient>
    <linearGradient
       inkscape:collect="always"
       xlink:href="#linearGradient4477-6"
       id="linearGradient4573-2"
       gradientUnits="userSpaceOnUse"
       x1="180.00671"
       y1="811.96661"
       x2="180.00671"
       y2="647.96765" />
    <linearGradient
       id="linearGradient4477-6">
      <stop
         style="stop-color:#000000;stop-opacity:1;"
         offset="0"
         id="stop4479-5" />
      <stop
         style="stop-color:#ffffff;stop-opacity:1;"
         offset="1"
         id="stop4481-1" />
    </linearGradient>
    <linearGradient
       inkscape:collect="always"
       xlink:href="#linearGradient4467"
       id="linearGradient4665"
       gradientUnits="userSpaceOnUse"
       gradientTransform="translate(-280.58123,-907.05723)"
       x1="180.35428"
       y1="666.39648"
       x2="180.35428"
       y2="810.52429" />
    <linearGradient
       inkscape:collect="always"
       xlink:href="#linearGradient4477"
       id="linearGradient4667"
       gradientUnits="userSpaceOnUse"
       gradientTransform="translate(-280.58123,-907.05723)"
       x1="180.00671"
       y1="811.96661"
       x2="180.00671"
       y2="647.96765" />
    <radialGradient
       inkscape:collect="always"
       xlink:href="#linearGradient4535"
       id="radialGradient4669"
       gradientUnits="userSpaceOnUse"
       gradientTransform="matrix(-0.74742308,0.74742308,-0.70710678,-0.70710678,509.42398,107.70987)"
       cx="179.71416"
       cy="673.12115"
       fx="179.71416"
       fy="673.12115"
       r="71.990494" />
  </defs>
  <sodipodi:namedview
     id="base"
     pagecolor="#ffffff"
     bordercolor="#666666"
     borderopacity="1.0"
     inkscape:pageopacity="0"
     inkscape:pageshadow="2"
     inkscape:zoom="0.70710678"
     inkscape:cx="260.94795"
     inkscape:cy="10.419565"
     inkscape:document-units="px"
     inkscape:current-layer="layer1"
     showgrid="false"
     fit-margin-top="0"
     fit-margin-left="0"
     fit-margin-right="0"
     fit-margin-bottom="0"
     inkscape:window-width="1280"
     inkscape:window-height="754"
     inkscape:window-x="0"
     inkscape:window-y="24"
     inkscape:window-maximized="1" />
  <metadata
     id="metadata7">
    <rdf:RDF>
      <cc:Work
         rdf:about="">
        <dc:format>image/svg+xml</dc:format>
        <dc:type
           rdf:resource="http://purl.org/dc/dcmitype/StillImage" />
        <dc:title></dc:title>
      </cc:Work>
    </rdf:RDF>
  </metadata>
  <g
     inkscape:label="Calque 1"
     inkscape:groupmode="layer"
     id="layer1"
     transform="translate(71.93961,-418.9321)"
     style="display:inline">
    <rect
       style="opacity:0;fill:#000000;fill-opacity:1;stroke:none"
       id="rect4661"
       width="439.8204"
       height="438.40619"
       x="-333.75439"
       y="-333.24683"
       transform="translate(105.21875,663.8125)"
       rx="28.310867"
       ry="28.310867" />
    <rect
       style="fill:#000000;fill-opacity:1;stroke:none"
       id="rect4663"
       width="376.18082"
       height="429.92093"
       x="-326.68332"
       y="-303.54834"
       transform="translate(105.21875,663.8125)"
       rx="28.310867"
       ry="28.310867" />
  </g>
  <g
     inkscape:groupmode="layer"
     id="layer2"
     inkscape:label="White background"
     style="display:none"
     transform="translate(177.15836,244.8804)">
    <path
       style="fill:#ffffff;fill-opacity:1;stroke:none;display:inline"
       d="m -63.6875,-246.78125 c -29.260507,0.44685 -58.6037,-0.74921 -87.8125,0.65625 -18.30682,3.43251 -30.41253,23.00893 -27.3205,41.06236 0.59814,29.72879 -1.51128,59.64 1.16425,89.25014 4.40248,17.204911 23.29335,27.869792 40.53111,25.038972 29.45102,-0.480296 59.050987,1.227281 88.40639,-0.976472 17.629876,-4.110924 28.736377,-23.15364 25.82036,-40.71861 -0.563528,-29.68923 1.428092,-59.54204 -1.13286,-89.12514 -4.486596,-17.06354 -22.473214,-27.54808 -39.65625,-25.1875 z"
       id="rect3600-6"
       inkscape:connector-curvature="0" />
  </g>
  <g
     inkscape:groupmode="layer"
     id="layer3"
     inkscape:label="Gradient"
     style="display:inline"
     transform="translate(177.15836,244.8804)">
    <rect
       style="fill:url(#linearGradient4665);fill-opacity:1;stroke:url(#linearGradient4667);stroke-width:5;stroke-linecap:round;stroke-miterlimit:4;stroke-opacity:1;stroke-dasharray:none;display:inline"
       id="rect3600"
       width="143.98099"
       height="143.98099"
       x="-172.85754"
       y="-240.73459"
       ry="28.310867"
       rx="28.310867"
       inkscape:export-filename="/home/gdetrez/Projects/Phrasebook/phrasedroid/res/drawable-hdpi/icon.png"
       inkscape:export-xdpi="44.827625"
       inkscape:export-ydpi="44.827625" />
  </g>
  <g
     inkscape:groupmode="layer"
     id="layer4"
     inkscape:label="Logo"
     style="display:inline"
     transform="translate(177.15836,244.8804)">
    <g
       id="g3592"
       transform="matrix(1.4941845,0,0,1.4941845,-615.86672,-928.80242)"
       inkscape:export-filename="/home/gdetrez/Projects/Phrasebook/phrasedroid/res/drawable-hdpi/icon.png"
       inkscape:export-xdpi="44.827625"
       inkscape:export-ydpi="44.827625">
      <path
         sodipodi:nodetypes="csssssssssssssssscsssssscssssscs"
         style="fill:#d2d0ce"
         d="m 338.10545,540.73302 c -12.96584,-2.41168 -25.03196,-7.2778 -26.05739,-10.50865 -0.32686,-1.02985 -1.6515,-2.56516 -2.94363,-3.4118 -3.17473,-2.08016 -4.49898,-6.36588 -4.49898,-14.56022 0,-7.54288 1.56487,-11.47101 7.24807,-18.19412 5.88196,-6.95824 8.56442,-9.10566 16.43018,-13.15303 7.53743,-3.87842 8.12228,-4.01036 19.24237,-4.34084 10.83362,-0.32196 11.79012,-0.1872 17.27402,2.43387 3.19295,1.52609 5.80536,3.2841 5.80536,3.9067 0,0.62259 1.82809,2.15943 4.06241,3.41519 3.87372,2.17715 6.08069,5.38988 6.48817,9.44494 0.10279,1.02292 0.69317,2.17275 1.31196,2.55519 2.12518,1.31343 3.0118,9.85211 1.53316,14.76526 -0.75351,2.50372 -1.14218,4.92088 -0.86371,5.37145 0.52007,0.84149 -2.30093,6.38274 -5.66017,11.11819 -1.0417,1.46847 -5.15152,4.56917 -9.13291,6.89044 -7.15214,4.16989 -7.36477,4.22299 -17.73891,4.42996 -5.775,0.11521 -11.4,0.0421 -12.5,-0.16253 z m 27.8056,-11.68316 c 3.79874,-3.85367 4.98065,-5.88106 5.72904,-9.82734 0.51861,-2.7346 1.20986,-5.4039 1.5361,-5.93178 1.34839,-2.18174 0.61584,-12.53563 -1.1593,-16.38554 -7.2536,-15.73157 -30.38173,-19.76385 -44.36763,-7.73528 -4.92225,4.23338 -4.6197,3.90273 -10.10475,11.04336 l -4.07739,5.30809 0.9907,6.36344 c 0.54488,3.4999 1.75725,7.24251 2.69416,8.31692 4.72304,5.41619 7.89642,8.20347 9.33984,8.20347 0.53392,0 1.70974,0.73897 2.61292,1.64215 3.32467,3.32467 8.5962,4.38245 20.51045,4.11562 l 11.50973,-0.25777 z"
         id="path3583"
         inkscape:connector-curvature="0" />
      <path
         sodipodi:nodetypes="ssssssssscsssscsssscsssssssscscsssscc"
         style="fill:#a6a7a4"
         d="m 330.60545,538.30202 c -9.62962,-2.34475 -17.85433,-6.46826 -18.56727,-9.30882 -0.2983,-1.18852 -1.49884,-2.59453 -2.66787,-3.12447 -2.63857,-1.19611 -4.58867,-6.4719 -4.68878,-12.68502 -0.11093,-6.88455 6.30016,-19.77851 9.83421,-19.77851 0.59934,0 1.08971,-0.57598 1.08971,-1.27995 0,-2.39886 6.48399,-7.25712 14.88224,-11.15083 7.45494,-3.45635 9.45001,-3.9377 18.03424,-4.35106 9.27307,-0.44653 9.89605,-0.34159 15.86777,2.67293 5.60127,2.82751 6.71519,3.94578 6.33417,6.35891 -0.0651,0.4125 0.72089,0.75 1.74672,0.75 2.95778,0 6.91705,3.73184 7.68922,7.24752 0.38936,1.77273 1.35713,4.21395 2.1506,5.42494 1.8418,2.81095 2.11153,14.6388 0.38137,16.72351 -0.69218,0.83403 -0.97638,1.97292 -0.63155,2.53086 0.34482,0.55794 -0.12809,2.49015 -1.05093,4.2938 -3.37766,6.60153 -7.21804,10.2953 -14.58311,14.02635 -7.22866,3.66196 -7.6339,3.74391 -17.85862,3.61151 -6.26764,-0.0812 -13.46902,-0.86764 -17.96212,-1.96167 z m 28.07805,-4.00698 c 7.29699,-1.56492 12.87074,-7.98312 14.34231,-16.51523 1.8413,-10.67575 2.1837,-17.88155 0.88735,-18.6743 -0.71924,-0.43983 -1.30771,-1.70654 -1.30771,-2.81492 0,-2.79123 -8.84205,-11.09377 -13.58679,-12.75778 -7.09939,-2.4898 -14.71783,-2.52208 -22.01638,-0.0933 -3.65267,1.21553 -7.38567,2.94257 -8.29556,3.83786 -0.90988,0.8953 -2.9924,2.75931 -4.6278,4.14226 -1.63541,1.38295 -4.30767,4.47168 -5.93837,6.86385 -1.63069,2.39217 -3.50714,4.55748 -4.16988,4.81179 -1.34953,0.51787 -0.75481,10.52132 0.80615,13.55991 0.62685,1.22023 0.50994,1.77049 -0.38619,1.81768 -0.70685,0.0372 -0.28258,0.55157 0.94282,1.143 1.2254,0.59142 2.47726,1.86067 2.78191,2.82055 0.56482,1.77957 7.61552,6.96877 9.46865,6.96877 0.56179,0 1.02144,0.37777 1.02144,0.83948 0,3.64941 19.62499,6.29214 30.07805,4.05036 z"
         id="path3581"
         inkscape:connector-curvature="0" />
      <path
         sodipodi:nodetypes="cssssssssssssssssssscccsscsssscssssss"
         style="fill:#976a6a"
         d="m 334.10545,538.65224 c -15.15823,-3.75817 -20.7806,-6.40507 -22.04109,-10.37651 -0.30867,-0.97252 -1.40235,-2.03519 -2.43041,-2.36148 -2.22666,-0.70672 -5.0285,-8.26377 -5.0285,-13.56276 0,-6.00773 6.76781,-18.94629 9.91029,-18.94629 0.59934,0 1.08971,-0.5922 1.08971,-1.316 0,-1.17253 6.48948,-7.684 7.65805,-7.684 0.25591,0 3.83821,-1.64471 7.96067,-3.65491 6.69988,-3.26701 8.52413,-3.69975 17.18834,-4.07742 9.09892,-0.39662 10.03,-0.24923 15.19294,2.40491 3.025,1.55508 5.94421,3.83992 6.48713,5.07742 0.54292,1.2375 1.69623,2.25 2.56291,2.25 2.32451,0 6.94996,5.25572 6.94996,7.89699 0,1.25815 0.9,3.43172 2,4.83014 2.89603,3.68171 2.30077,16.24716 -1.06633,22.5093 -0.51352,0.95504 -0.93367,2.41754 -0.93367,3.25 0,0.83246 -0.62622,1.51357 -1.39159,1.51357 -0.76538,0 -1.66076,1.07245 -1.98975,2.38323 -0.95971,3.82379 -15.38087,10.86375 -23.0324,11.24369 -3.2854,0.16314 -6.46393,-0.11043 -7.0634,-0.60795 -0.65142,-0.54063 -1.67993,-0.53141 -2.5564,0.0229 -1.74832,1.10575 -1.82734,1.09912 -9.46646,-0.79485 z m 24.3729,-4.22294 c 9.79408,-1.8574 15.72944,-12.33152 16.37763,-28.90158 0.17112,-4.37458 -0.1431,-6.52807 -1.00053,-6.85698 -0.6875,-0.26374 -1.25,-1.11248 -1.25,-1.8861 0,-7.04444 -13.1361,-15.45247 -24.5,-15.68172 -11.11324,-0.22419 -23.24275,6.43116 -30.07684,16.50285 -1.60454,2.36469 -3.51269,4.67694 -4.24033,5.13833 -1.19165,0.75563 -1.13566,5.42258 0.18188,15.1611 0.0744,0.55 0.92279,1.58802 1.88529,2.3067 0.9625,0.71869 1.75,1.96733 1.75,2.77476 0,0.80742 1.08129,1.87915 2.40286,2.38161 1.32157,0.50246 2.66775,1.34216 2.9915,1.866 0.32375,0.52383 2.95421,2.18935 5.84546,3.70115 7.69279,4.02245 19.50327,5.41496 29.63308,3.49388 z"
         id="path3579"
         inkscape:connector-curvature="0" />
      <path
         sodipodi:nodetypes="ssssssssssssscsssssssssssssssssssssccsssssss"
         style="fill:#5e5f5d"
         d="m 345.97579,539.19541 c -0.2711,-0.43866 -1.54823,-0.53268 -2.83807,-0.20895 -3.3708,0.84601 -18.1127,-2.35688 -24.35178,-5.29079 -3.06396,-1.44082 -5.7784,-3.50863 -6.40176,-4.87675 -0.59523,-1.3064 -1.88479,-2.62999 -2.86567,-2.94131 -2.61526,-0.83006 -5.29051,-9.70199 -4.55145,-15.09401 0.6165,-4.49785 3.79131,-11.67418 6.25427,-14.13714 0.76127,-0.76126 1.38412,-1.80197 1.38412,-2.31269 0,-0.51071 0.675,-0.92857 1.5,-0.92857 0.825,0 1.5,-0.49422 1.5,-1.09826 0,-1.81573 7.30009,-7.90536 10.25,-8.55041 1.5125,-0.33073 2.75,-0.93967 2.75,-1.35319 0,-1.28014 10.14886,-5.19248 12.12743,-4.67507 1.02882,0.26905 2.12258,0.0814 2.43059,-0.41695 0.30801,-0.49837 3.67349,-0.90612 7.47884,-0.90612 5.49603,0 8.05442,0.55694 12.44099,2.70832 3.03718,1.48957 5.52215,3.09672 5.52215,3.57143 0,1.34647 2.70636,3.72025 4.24148,3.72025 2.1459,0 6.75852,5.35066 6.75852,7.8399 0,1.22676 0.78383,3.42674 1.74184,4.88885 0.95801,1.46211 1.85244,4.03378 1.98762,5.71482 0.50807,6.31814 -3.53812,21.55643 -5.72383,21.55643 -0.53214,0 -1.25056,1.12771 -1.5965,2.50603 -0.99991,3.98395 -15.10455,10.5598 -23.28394,10.85541 -3.44407,0.12447 -6.48375,-0.13258 -6.75485,-0.57123 z m 15.68335,-5.02516 c 1.85511,-0.38769 8.94631,-8.02576 8.94631,-9.63625 0,-0.62084 0.45,-1.1288 1,-1.1288 0.55,0 1,-1.3207 1,-2.9349 0,-1.6142 0.49124,-4.2017 1.09164,-5.75 1.65672,-4.27235 1.80648,-16.3151 0.20288,-16.3151 -0.71199,0 -1.29452,-0.68111 -1.29452,-1.51357 0,-4.7309 -6.95362,-11.38926 -14.60664,-13.98643 -12.66682,-4.29867 -24.16778,-1.5797 -33.8391,8 -12.02789,11.91394 -12.59736,13.15773 -10.64498,23.25 0.56949,2.94386 0.47928,4.26948 -0.29355,4.31339 -0.61365,0.0349 -0.0967,0.47278 1.14882,0.97315 1.2455,0.50038 2.69686,2.04685 3.22524,3.43662 0.52839,1.38976 1.64685,2.52684 2.48546,2.52684 0.83861,0 1.52475,0.39873 1.52475,0.88606 0,0.48733 1.4625,1.64929 3.25,2.58212 1.7875,0.93283 4.6,2.42675 6.25,3.3198 1.65,0.89306 5.025,1.94901 7.5,2.34656 4.10019,0.65859 19.29995,0.41498 23.05369,-0.36949 z"
         id="path3577"
         inkscape:connector-curvature="0" />
      <path
         sodipodi:nodetypes="csssscsssscssssssssssssscccssssssssssssscscsssssss"
         style="fill:#511919"
         d="m 336.60545,538.36103 c -1.375,-0.45728 -5.2,-1.39458 -8.5,-2.08289 -10.03148,-2.09236 -16.5,-5.78212 -16.5,-9.41189 0,-0.80358 -0.8577,-1.46105 -1.906,-1.46105 -2.17873,0 -5.12412,-7.24848 -5.05011,-12.42814 0.0842,-5.89109 6.82144,-19.45109 9.70611,-19.53535 0.6875,-0.0201 1.25,-0.43519 1.25,-0.92246 0,-1.75473 7.56037,-8.24394 10.25,-8.79778 1.5125,-0.31145 2.75,-0.90461 2.75,-1.31813 0,-1.28014 10.14886,-5.19248 12.12743,-4.67507 1.02882,0.26905 2.12258,0.0814 2.43059,-0.41695 0.30801,-0.49837 3.67349,-0.90612 7.47884,-0.90612 5.49603,0 8.05442,0.55694 12.44099,2.70832 3.03718,1.48957 5.52215,3.09672 5.52215,3.57143 0,1.39846 2.73209,3.72025 4.37768,3.72025 1.95487,0 6.62232,6.09261 6.62232,8.64439 0,1.07559 0.44604,2.40165 0.99119,2.9468 2.05481,2.05481 2.87051,10.55049 1.46226,15.22973 -0.74282,2.46822 -1.31353,4.75574 -1.26824,5.08338 0.32553,2.35481 -1.74525,7.13867 -3.30429,7.63349 -1.03451,0.32834 -1.88092,1.38203 -1.88092,2.34154 0,1.5259 -4.89032,6.12067 -6.51437,6.12067 -0.32745,0 -2.70817,0.96898 -5.29049,2.15329 -5.11601,2.34631 -18.19514,3.65252 -18.19514,1.81714 0,-0.71913 -0.5978,-0.72086 -1.93426,-0.006 -2.19596,1.17524 -3.50985,1.17357 -7.06574,-0.009 z m 25.05369,-4.18439 c 1.85837,-0.39602 8.94631,-8.03564 8.94631,-9.64264 0,-0.62084 0.45,-1.1288 1,-1.1288 0.55,0 1,-1.3207 1,-2.9349 0,-1.6142 0.51167,-4.2017 1.13704,-5.75 1.63431,-4.04624 1.72279,-16.3151 0.11766,-16.3151 -0.69008,0 -1.2547,-0.68111 -1.2547,-1.51357 0,-4.19513 -7.72839,-12.3272 -13.59268,-14.30266 -7.33488,-2.47084 -14.46074,-3.48514 -16.75568,-2.38501 -1.1834,0.56728 -4.60528,1.85714 -7.60418,2.86633 -4.17622,1.4054 -7.04368,3.42301 -12.25,8.61939 -3.7386,3.73147 -6.79746,7.36793 -6.79746,8.08102 0,0.7131 -1.11946,1.89566 -2.48768,2.62791 -1.62956,0.87211 -2.17397,1.70936 -1.57823,2.42717 0.50019,0.6027 1.05715,4.12871 1.23768,7.83557 0.23345,4.79368 0.71424,6.74034 1.66509,6.7418 0.73528,10e-4 1.84644,1.35205 2.46924,3.00205 0.67425,1.78629 1.85282,3 2.91314,3 0.97942,0 1.78076,0.47172 1.78076,1.04827 0,0.57656 1.2375,1.59067 2.75,2.2536 1.5125,0.66292 3.95929,2.02446 5.4373,3.02565 1.47802,1.00119 4.85302,2.21203 7.5,2.69076 4.29318,0.77646 20.32659,0.61403 24.36639,-0.24684 z"
         id="path3575"
         inkscape:connector-curvature="0" />
      <path
         sodipodi:nodetypes="cssssssssssssssscsscccssssscssscssssssss"
         style="fill:#37100f"
         d="m 339.36545,538.83187 c -0.31533,-0.31534 -3.87783,-1.23494 -7.91667,-2.04356 -10.54708,-2.11165 -10.88121,-2.3048 -6.90218,-3.98995 3.02095,-1.2794 3.89298,-1.27657 7.14143,0.0232 4.88419,1.95427 17.12565,3.00851 25.06325,2.15847 6.22996,-0.66718 6.46163,-0.79973 11.10841,-6.35605 3.09469,-3.70042 4.74576,-6.61643 4.74576,-8.38163 0,-1.48883 0.51167,-3.97376 1.13704,-5.52206 1.63431,-4.04624 1.72279,-16.3151 0.11766,-16.3151 -1.91736,0 -1.49817,-2.75168 0.91682,-6.01812 2.13384,-2.88617 2.19612,-2.90202 3.58919,-0.91313 0.77972,1.11321 1.17166,2.66512 0.87097,3.44869 -0.30069,0.78358 0.078,2.04938 0.84152,2.81291 1.21437,1.21436 2.93508,8.34641 2.69485,11.16965 -0.45343,5.32884 -3.85522,16.58332 -5.13528,16.9896 -0.85286,0.27069 -1.99663,1.47346 -2.54171,2.67284 -1.27171,2.7982 -5.46968,5.88492 -8.29278,6.09758 -1.20905,0.0911 -2.19828,0.46523 -2.19828,0.83146 0,2.42214 -16.17646,4.79458 -18.68608,2.74051 -0.77231,-0.63212 -1.88315,-0.59771 -3.18426,0.0986 -2.30376,1.23294 -2.59056,1.27516 -3.36966,0.49606 z m -28.26,-36.42667 c 0.33992,-0.55 1.06803,-1 1.61803,-1 0.55,0 0.72189,0.45 0.38197,1 -0.33992,0.55 -1.06803,1 -1.61803,1 -0.55,0 -0.72189,-0.45 -0.38197,-1 z m 3.57895,-2.12756 c -0.0434,-0.89515 0.70855,-2.24515 1.67105,-3 1.5207,-1.19261 1.60381,-1.1759 0.63427,0.12756 -0.61365,0.825 -1.36562,2.175 -1.67105,3 -0.46453,1.25475 -0.56823,1.23389 -0.63427,-0.12756 z m 2.92105,-5.215 c 0,-0.81017 8.75585,-8.90489 10.86186,-10.04171 1.88537,-1.01772 1.76725,-0.89447 -5.61186,5.85554 -2.8875,2.64133 -5.25,4.5251 -5.25,4.18617 z m 16.5,-12.71216 c 2.2,-1.04106 4.675,-1.88358 5.5,-1.87228 0.825,0.0113 -0.75,0.89913 -3.5,1.97296 -6.25904,2.44405 -7.27006,2.39315 -2,-0.10068 z"
         id="path3573"
         inkscape:connector-curvature="0" />
    </g>
  </g>
  <g
     inkscape:groupmode="layer"
     id="layer5"
     inkscape:label="Light"
     style="display:inline"
     transform="translate(177.15836,244.8804)">
    <rect
       style="fill:url(#radialGradient4669);fill-opacity:1;stroke:none;display:inline"
       id="rect3600-4"
       width="143.98099"
       height="143.98099"
       x="-172.85754"
       y="-240.73459"
       ry="28.310867"
       rx="28.310867"
       inkscape:export-filename="/home/gdetrez/Projects/Phrasebook/phrasedroid/res/drawable-hdpi/icon.png"
       inkscape:export-xdpi="44.827625"
       inkscape:export-ydpi="44.827625" />
  </g>
</svg>
