<?xml version="1.0" encoding="UTF-8" standalone="no"?>
<!-- Created with Inkscape (http://www.inkscape.org/) -->

<svg
   xmlns:dc="http://purl.org/dc/elements/1.1/"
   xmlns:cc="http://creativecommons.org/ns#"
   xmlns:rdf="http://www.w3.org/1999/02/22-rdf-syntax-ns#"
   xmlns:svg="http://www.w3.org/2000/svg"
   xmlns="http://www.w3.org/2000/svg"
   xmlns:sodipodi="http://sodipodi.sourceforge.net/DTD/sodipodi-0.dtd"
   xmlns:inkscape="http://www.inkscape.org/namespaces/inkscape"
   width="24"
   height="24"
   id="svg8201"
   version="1.1"
   inkscape:version="0.48.0 r9654"
   inkscape:export-filename="/home/gdetrez/Projects/PhraseDroid2.0/res/drawable/ic_input_delete.png"
   inkscape:export-xdpi="90"
   inkscape:export-ydpi="90"
   sodipodi:docname="Nouveau document 16">
  <defs
     id="defs8203" />
  <sodipodi:namedview
     id="base"
     pagecolor="#ffffff"
     bordercolor="#666666"
     borderopacity="1.0"
     inkscape:pageopacity="0.0"
     inkscape:pageshadow="2"
     inkscape:zoom="5.6"
     inkscape:cx="53.343582"
     inkscape:cy="11.223872"
     inkscape:document-units="px"
     inkscape:current-layer="layer1"
     showgrid="false"
     inkscape:window-width="1280"
     inkscape:window-height="747"
     inkscape:window-x="0"
     inkscape:window-y="24"
     inkscape:window-maximized="1" />
  <metadata
     id="metadata8206">
    <rdf:RDF>
      <cc:Work
         rdf:about="">
        <dc:format>image/svg+xml</dc:format>
        <dc:type
           rdf:resource="http://purl.org/dc/dcmitype/StillImage" />
        <dc:title></dc:title>
      </cc:Work>
    </rdf:RDF>
  </metadata>
  <g
     inkscape:label="Calque 1"
     inkscape:groupmode="layer"
     id="layer1"
     transform="translate(0,-1028.3622)">
    <g
       transform="matrix(0.26667259,0,0,0.26666963,-139.99504,955.22659)"
       id="Cross-4-98"
       style="fill:#800000"
       inkscape:export-filename="/home/gdetrez/Projects/PhraseDroid2.0/res/drawable/ic_input_delete.png"
       inkscape:export-xdpi="125.74104"
       inkscape:export-ydpi="125.74104">
      <path
         style="fill:#800000"
         inkscape:connector-curvature="0"
         d="m 579.088,319.255 12.91,-12.908 c 0.627,-0.627 0.627,-1.654 0,-2.281 l -6.84,-6.842 c -0.627,-0.625 -1.652,-0.625 -2.279,0 l -12.91,12.91 -12.91,-12.91 c -0.627,-0.625 -1.654,-0.625 -2.281,0 l -6.84,6.842 c -0.625,0.627 -0.625,1.654 0,2.281 l 12.91,12.908 -12.908,12.908 c -0.627,0.627 -0.627,1.654 0,2.281 l 6.84,6.842 c 0.627,0.625 1.654,0.625 2.281,0 l 12.908,-12.91 12.908,12.91 c 0.627,0.625 1.652,0.625 2.279,0 l 6.84,-6.842 c 0.627,-0.627 0.627,-1.654 0,-2.281 l -12.908,-12.908 z"
         id="path6964-0-78" />
    </g>
  </g>
</svg>
